<svg 
 xmlns="http://www.w3.org/2000/svg"
 xmlns:xlink="http://www.w3.org/1999/xlink"
 width="16px" height="8px">
<path fill-rule="evenodd"  fill="rgb(205, 211, 229)"
 d="M15.903,0.989 C16.067,0.710 16.021,0.356 15.791,0.129 C15.539,-0.083 15.191,-0.023 14.991,0.249 C14.963,0.281 11.791,4.309 8.007,4.309 C4.342,4.309 1.018,0.249 0.990,0.221 C0.795,-0.016 0.444,-0.049 0.208,0.146 C0.202,0.151 0.196,0.156 0.190,0.161 C-0.037,0.395 -0.061,0.759 0.134,1.021 C0.190,1.109 0.878,1.941 1.970,2.861 L0.510,4.489 C0.293,4.738 0.305,5.114 0.538,5.349 C0.594,5.469 0.738,5.533 0.878,5.533 C1.018,5.533 1.158,5.473 1.282,5.349 L2.854,3.601 C3.598,4.157 4.482,4.673 5.463,5.045 L4.862,7.233 C4.774,7.565 4.942,7.913 5.262,8.001 L5.434,8.001 C5.705,7.999 5.936,7.803 5.982,7.537 L6.583,5.349 C7.047,5.441 7.526,5.501 8.015,5.501 C8.503,5.501 8.983,5.441 9.447,5.349 L10.047,7.505 C10.103,7.766 10.328,7.956 10.595,7.969 C10.651,7.969 10.707,7.969 10.735,7.941 C11.047,7.849 11.227,7.505 11.139,7.173 L10.539,5.013 C11.471,4.655 12.349,4.169 13.147,3.569 L14.691,5.289 C14.803,5.409 14.943,5.473 15.095,5.473 C15.249,5.470 15.395,5.403 15.499,5.289 C15.718,5.048 15.730,4.683 15.527,4.429 L14.067,2.801 C15.219,1.881 15.907,0.989 15.907,0.989 L15.903,0.989 Z"/>
</svg>