<svg 
 xmlns="http://www.w3.org/2000/svg"
 xmlns:xlink="http://www.w3.org/1999/xlink"
 width="16px" height="12px">
<path fill-rule="evenodd"  fill="rgb(205, 211, 229)"
 d="M15.809,6.447 L13.056,9.642 C11.875,11.031 10.201,11.877 8.408,11.989 L7.981,12.002 C6.337,12.006 4.749,11.389 3.518,10.270 C3.301,10.074 3.097,9.865 2.906,9.642 L0.154,6.426 C-0.057,6.187 -0.057,5.822 0.154,5.583 L2.906,2.363 C5.373,-0.520 9.648,-0.802 12.454,1.732 C12.455,1.733 12.456,1.734 12.457,1.735 C12.672,1.937 12.872,2.154 13.056,2.384 L15.809,5.604 C16.020,5.843 16.020,6.208 15.809,6.447 ZM12.150,3.227 C11.993,3.044 11.824,2.872 11.645,2.713 C9.351,0.655 5.869,0.884 3.850,3.227 L1.417,6.009 L3.813,8.807 C3.970,8.990 4.138,9.162 4.318,9.321 C6.612,11.397 10.109,11.169 12.129,8.812 C12.130,8.811 12.132,8.809 12.133,8.807 L14.529,6.009 L12.150,3.227 ZM7.099,8.449 C5.817,7.986 5.142,6.543 5.593,5.225 C6.034,3.937 7.389,3.242 8.656,3.652 C7.966,4.470 8.050,5.708 8.845,6.419 C9.194,6.732 9.643,6.904 10.107,6.902 L10.238,6.902 C9.787,8.220 8.382,8.912 7.099,8.449 ZM8.658,3.653 C8.658,3.653 8.657,3.653 8.656,3.652 C8.657,3.651 8.657,3.650 8.658,3.649 L8.658,3.653 Z"/>
</svg>