<svg 
 xmlns="http://www.w3.org/2000/svg"
 xmlns:xlink="http://www.w3.org/1999/xlink"
 width="14px" height="16px">
<path fill-rule="evenodd"  fill="rgb(205, 211, 229)"
 d="M13.996,12.286 C13.996,12.435 13.913,12.572 13.781,12.639 L7.276,15.956 C7.167,16.011 7.039,16.012 6.929,15.957 L0.216,12.590 C0.083,12.524 -0.001,12.386 -0.001,12.236 L-0.001,3.819 C-0.001,3.670 0.083,3.533 0.214,3.466 L0.214,3.466 L6.947,0.040 C7.058,-0.017 7.190,-0.016 7.300,0.042 L13.789,3.464 C13.918,3.532 13.999,3.668 13.998,3.816 L13.996,12.286 ZM11.354,3.796 L7.222,1.613 C7.111,1.555 6.980,1.554 6.868,1.611 L1.597,4.298 L6.282,6.641 C6.305,6.623 6.319,6.596 6.345,6.583 L11.353,4.036 C11.449,3.986 11.450,3.847 11.354,3.796 ZM12.507,4.977 L7.658,7.451 C7.527,7.518 7.444,7.654 7.444,7.804 L7.444,14.055 C7.444,14.155 7.548,14.220 7.636,14.175 L12.699,11.543 L12.699,5.098 C12.699,4.998 12.595,4.933 12.507,4.977 Z"/>
</svg>