<svg 
 xmlns="http://www.w3.org/2000/svg"
 xmlns:xlink="http://www.w3.org/1999/xlink"
 width="16px" height="16px">
<path fill-rule="evenodd"  fill="rgb(205, 211, 229)"
 d="M1.485,5.390 L1.485,1.698 C1.485,0.762 2.166,-0.000 3.002,-0.000 L11.465,-0.000 L14.502,3.480 L14.502,10.482 L13.742,10.482 L13.742,4.330 L11.845,4.330 C11.228,4.343 10.718,3.795 10.707,3.105 C10.706,3.089 10.706,3.073 10.707,3.058 L10.707,0.849 L3.003,0.849 C2.584,0.851 2.245,1.229 2.244,1.697 L2.244,5.389 L15.242,5.389 C15.660,5.389 16.001,5.772 16.001,6.239 L16.001,12.180 C16.001,12.646 15.660,13.028 15.242,13.028 L2.244,13.028 L2.244,14.300 C2.244,14.767 2.585,15.149 3.003,15.149 L12.984,15.149 C13.401,15.149 13.742,14.768 13.742,14.300 L13.742,9.607 L14.502,9.607 L14.502,14.302 C14.502,15.237 13.820,16.000 12.984,16.000 L3.003,16.000 C2.165,15.999 1.486,15.239 1.484,14.302 L1.484,13.030 L0.756,13.030 C0.337,13.028 -0.002,12.649 -0.003,12.181 L-0.003,6.239 C-0.003,5.772 0.338,5.390 0.756,5.390 L1.484,5.390 L1.485,5.390 ZM4.834,6.990 L3.103,12.059 L3.895,12.059 L4.308,10.788 L6.207,10.788 L6.619,12.059 L7.413,12.059 L5.680,6.990 L4.836,6.990 L4.834,6.990 ZM4.530,10.107 L5.247,7.884 L5.273,7.884 L5.984,10.107 L4.528,10.107 L4.530,10.107 ZM7.857,6.990 L7.857,12.059 L8.599,12.059 L8.599,10.114 L9.724,10.114 C10.828,10.114 11.380,9.588 11.380,8.545 C11.380,7.508 10.829,6.990 9.736,6.990 L7.856,6.990 L7.857,6.990 ZM8.599,7.700 L9.679,7.700 C10.003,7.700 10.244,7.764 10.397,7.898 C10.550,8.026 10.631,8.239 10.631,8.545 C10.631,8.850 10.555,9.070 10.403,9.205 C10.250,9.333 10.009,9.404 9.680,9.404 L8.600,9.404 L8.600,7.700 L8.599,7.700 ZM12.015,6.990 L12.015,12.059 L12.759,12.059 L12.759,6.990 L12.015,6.990 ZM11.466,1.189 L11.466,3.055 C11.466,3.268 11.617,3.481 11.845,3.481 L13.440,3.481 L11.466,1.189 Z"/>
</svg>