<svg 
 xmlns="http://www.w3.org/2000/svg"
 xmlns:xlink="http://www.w3.org/1999/xlink"
 width="10px" height="12px">
<path fill-rule="evenodd"  fill="rgb(205, 211, 229)"
 d="M0.616,11.063 C0.616,11.588 1.039,12.000 1.539,12.000 L8.460,12.000 C8.998,12.000 9.383,11.588 9.383,11.063 L9.383,3.261 L0.616,3.261 L0.616,11.063 ZM9.383,1.236 L7.152,1.236 L7.152,0.599 C7.152,0.261 6.845,-0.002 6.537,-0.002 L3.461,-0.002 C3.115,-0.002 2.846,0.261 2.846,0.599 L2.846,1.236 L0.616,1.236 C0.270,1.236 0.000,1.499 0.000,1.836 C0.000,2.174 0.270,2.436 0.616,2.436 L9.383,2.436 C9.729,2.436 9.998,2.174 9.998,1.836 C9.998,1.536 9.729,1.236 9.383,1.236 Z"/>
</svg>