<svg 
 xmlns="http://www.w3.org/2000/svg"
 xmlns:xlink="http://www.w3.org/1999/xlink"
 width="12px" height="13px">
<path fill-rule="evenodd"  fill="rgb(205, 211, 229)"
 d="M4.246,12.140 L0.424,12.987 C0.182,13.060 -0.060,12.818 0.012,12.575 L0.859,8.726 C0.932,8.460 1.246,8.387 1.440,8.581 L4.415,11.559 C4.608,11.752 4.512,12.067 4.246,12.140 ZM11.817,4.732 L5.673,10.905 C5.431,11.147 5.020,11.147 4.778,10.905 L2.068,8.218 C1.827,7.976 1.827,7.564 2.068,7.322 L8.237,1.149 C8.479,0.907 8.890,0.907 9.132,1.149 L11.817,3.836 C12.059,4.102 12.059,4.490 11.817,4.732 Z"/>
</svg>