<svg 
 xmlns="http://www.w3.org/2000/svg"
 xmlns:xlink="http://www.w3.org/1999/xlink"
 width="16px" height="16px">
<path fill-rule="evenodd"  fill="rgb(205, 211, 229)"
 d="M14.000,15.999 L5.028,15.999 C3.943,15.999 3.028,15.071 3.028,13.969 L3.028,11.118 C3.028,10.654 3.428,10.248 3.885,10.248 C4.342,10.248 4.742,10.654 4.742,11.118 L4.742,13.969 C4.742,14.143 4.857,14.259 5.028,14.259 L14.000,14.259 C14.171,14.259 14.285,14.143 14.285,13.969 L14.285,2.028 C14.285,1.853 14.171,1.738 14.000,1.738 L5.028,1.738 C4.857,1.738 4.742,1.853 4.742,2.028 L4.742,5.030 C4.742,5.494 4.342,5.900 3.885,5.900 C3.428,5.900 3.028,5.494 3.028,5.030 L3.028,2.028 C3.028,0.926 3.943,-0.001 5.028,-0.001 L14.000,-0.001 C15.085,-0.001 16.000,0.868 16.000,2.028 L16.000,13.969 C16.000,15.071 15.085,15.999 14.000,15.999 ZM7.314,6.202 C6.971,5.796 6.971,5.216 7.314,4.868 C7.485,4.636 7.714,4.578 7.943,4.578 C8.171,4.578 8.400,4.695 8.571,4.868 L11.142,7.477 C11.200,7.477 11.200,7.535 11.257,7.593 C11.314,7.650 11.371,7.709 11.371,7.767 L11.428,8.115 L11.428,8.288 C11.371,8.347 11.371,8.463 11.314,8.520 L11.314,8.579 L11.200,8.695 L11.142,8.752 L11.085,8.810 L11.142,8.810 L8.571,11.419 C8.171,11.767 7.600,11.767 7.257,11.419 C7.028,11.245 6.971,11.013 6.971,10.781 C6.971,10.550 7.085,10.318 7.257,10.144 L8.285,9.100 L0.914,9.100 C0.400,9.100 -0.000,8.695 -0.000,8.173 C-0.000,7.650 0.400,7.245 0.914,7.245 L8.400,7.245 L7.314,6.202 Z"/>
</svg>