<svg 
 xmlns="http://www.w3.org/2000/svg"
 xmlns:xlink="http://www.w3.org/1999/xlink"
 width="16px" height="16px">
<path fill-rule="evenodd"  fill="rgb(54, 120, 216)"
 d="M7.998,0.000 C8.205,0.000 8.411,0.092 8.549,0.229 C8.686,0.366 8.778,0.572 8.778,0.778 L8.778,3.205 C8.778,3.639 8.411,3.983 7.998,3.983 C7.563,3.983 7.219,3.639 7.219,3.205 L7.219,0.801 C7.219,0.595 7.311,0.389 7.448,0.252 C7.586,0.092 7.792,0.000 7.998,0.000 ZM12.147,1.190 C12.514,1.419 12.651,1.900 12.445,2.266 L11.230,4.372 C11.001,4.738 10.520,4.875 10.153,4.669 C9.786,4.463 9.649,3.960 9.855,3.594 L11.070,1.488 C11.276,1.122 11.780,0.984 12.147,1.190 ZM14.783,4.074 C14.898,4.257 14.920,4.463 14.852,4.669 C14.806,4.875 14.668,5.036 14.485,5.150 L12.376,6.363 C12.124,6.501 11.826,6.501 11.597,6.363 C11.345,6.226 11.207,5.951 11.207,5.677 C11.207,5.402 11.368,5.127 11.597,4.990 L13.706,3.777 C14.072,3.571 14.554,3.708 14.783,4.074 ZM15.998,7.851 C15.998,8.057 15.906,8.263 15.769,8.400 C15.631,8.538 15.425,8.629 15.218,8.629 L12.766,8.629 C12.330,8.629 11.987,8.263 11.987,7.851 C11.987,7.416 12.330,7.073 12.766,7.073 L15.196,7.073 C15.402,7.073 15.608,7.164 15.746,7.302 C15.906,7.439 15.998,7.645 15.998,7.851 ZM14.783,11.925 C14.554,12.291 14.072,12.429 13.706,12.223 L11.597,11.010 C11.230,10.781 11.093,10.300 11.299,9.934 C11.505,9.568 12.010,9.430 12.376,9.636 L14.485,10.849 C14.852,11.078 14.989,11.559 14.783,11.925 ZM12.147,15.130 C11.964,15.244 11.757,15.267 11.551,15.198 C11.345,15.153 11.184,15.015 11.070,14.832 L9.855,12.726 C9.649,12.360 9.763,11.857 10.153,11.651 C10.520,11.445 11.024,11.559 11.230,11.948 L12.445,14.054 C12.651,14.420 12.514,14.901 12.147,15.130 ZM7.998,15.999 C7.792,15.999 7.586,15.908 7.448,15.771 C7.311,15.633 7.219,15.427 7.219,15.221 L7.219,12.795 C7.219,12.360 7.586,12.017 7.998,12.017 C8.434,12.017 8.778,12.360 8.778,12.795 L8.778,15.221 C8.778,15.656 8.434,15.999 7.998,15.999 ZM3.827,15.130 C3.460,14.901 3.323,14.420 3.529,14.054 L4.744,11.948 C4.881,11.696 5.156,11.559 5.431,11.559 C5.706,11.559 5.981,11.719 6.119,11.948 C6.256,12.200 6.256,12.497 6.119,12.726 L4.904,14.832 C4.698,15.198 4.217,15.336 3.827,15.130 ZM0.893,11.925 C0.778,11.742 0.756,11.536 0.824,11.330 C0.870,11.124 1.008,10.964 1.191,10.849 L3.300,9.636 C3.666,9.430 4.171,9.545 4.377,9.934 C4.583,10.300 4.469,10.804 4.079,11.010 L1.970,12.223 C1.604,12.429 1.122,12.314 0.893,11.925 ZM-0.001,7.851 C-0.001,7.645 0.091,7.439 0.228,7.302 C0.366,7.164 0.572,7.073 0.778,7.073 L3.208,7.073 C3.644,7.073 3.987,7.439 3.987,7.851 C3.987,8.286 3.644,8.629 3.208,8.629 L0.778,8.629 C0.343,8.629 -0.001,8.286 -0.001,7.851 ZM0.893,4.074 C1.122,3.708 1.604,3.571 1.970,3.777 L4.079,4.990 C4.446,5.196 4.583,5.699 4.377,6.066 C4.171,6.432 3.666,6.569 3.300,6.363 L1.191,5.150 C1.008,5.036 0.870,4.875 0.824,4.669 C0.756,4.486 0.778,4.257 0.893,4.074 ZM3.827,1.190 C4.010,1.076 4.217,1.053 4.423,1.122 C4.629,1.167 4.790,1.305 4.904,1.488 L6.119,3.594 C6.256,3.845 6.256,4.143 6.119,4.372 C5.981,4.624 5.706,4.761 5.431,4.761 C5.156,4.761 4.881,4.601 4.744,4.372 L3.529,2.266 C3.323,1.900 3.460,1.419 3.827,1.190 Z"/>
</svg>