<svg 
 xmlns="http://www.w3.org/2000/svg"
 xmlns:xlink="http://www.w3.org/1999/xlink"
 width="16px" height="16px">
<path fill-rule="evenodd"  fill="rgb(54, 198, 169)"
 d="M8.000,16.000 C3.582,16.000 -0.000,12.418 -0.000,8.000 C-0.000,3.582 3.582,-0.000 8.000,-0.000 C12.418,-0.000 16.000,3.582 16.000,8.000 C16.000,12.418 12.418,16.000 8.000,16.000 ZM8.000,1.143 C4.213,1.143 1.143,4.213 1.143,8.000 C1.143,11.787 4.213,14.857 8.000,14.857 C11.787,14.857 14.857,11.787 14.857,8.000 C14.857,4.213 11.787,1.143 8.000,1.143 ZM12.672,5.932 L7.284,11.242 C7.163,11.361 6.999,11.428 6.828,11.426 C6.656,11.428 6.492,11.361 6.371,11.242 L3.614,8.523 C3.363,8.278 3.363,7.875 3.614,7.630 C3.863,7.385 4.271,7.385 4.520,7.630 L6.828,9.905 L11.765,5.037 C12.014,4.791 12.423,4.791 12.672,5.037 C12.922,5.284 12.922,5.686 12.672,5.932 Z"/>
</svg>