<svg 
 xmlns="http://www.w3.org/2000/svg"
 xmlns:xlink="http://www.w3.org/1999/xlink"
 width="14px" height="16px">
<path fill-rule="evenodd"  fill="rgb(54, 120, 216)"
 d="M8.734,10.369 C8.734,10.369 8.733,10.369 8.732,10.369 C8.230,10.369 7.754,10.278 7.295,10.149 L6.497,10.167 L6.625,11.737 C6.626,11.755 6.627,11.772 6.627,11.790 C6.630,12.118 6.361,12.386 6.028,12.388 L4.476,12.419 L4.512,13.951 C4.513,13.969 4.513,13.988 4.512,14.007 C4.494,14.335 4.210,14.587 3.876,14.570 L2.141,14.511 L2.148,15.833 L0.840,15.998 L-0.005,15.122 L-0.005,13.305 L4.563,8.317 C3.886,7.445 3.468,6.368 3.469,5.185 C3.469,5.184 3.469,5.183 3.469,5.182 C3.469,2.320 5.827,0.000 8.734,0.000 C8.735,0.000 8.735,0.000 8.736,0.000 C11.644,0.001 14.002,2.322 14.001,5.185 C14.001,5.186 14.001,5.186 14.001,5.187 C14.001,8.050 11.643,10.370 8.734,10.369 ZM11.369,5.106 C11.347,3.675 10.150,2.532 8.695,2.553 C7.241,2.575 6.080,3.753 6.102,5.185 C6.123,6.586 7.272,7.716 8.695,7.738 C10.149,7.760 11.346,6.617 11.369,5.185 C11.369,5.159 11.369,5.133 11.369,5.106 Z"/>
</svg>