<svg 
 xmlns="http://www.w3.org/2000/svg"
 xmlns:xlink="http://www.w3.org/1999/xlink"
 width="25.5px" height="25.5px">
<path fill-rule="evenodd"  stroke="rgb(205, 211, 229)" stroke-width="1px" stroke-linecap="butt" stroke-linejoin="miter" fill="rgb(255, 255, 255)"
 d="M4.500,0.500 L20.500,0.500 C22.709,0.500 24.500,2.291 24.500,4.500 L24.500,20.500 C24.500,22.709 22.709,24.500 20.500,24.500 L4.500,24.500 C2.291,24.500 0.500,22.709 0.500,20.500 L0.500,4.500 C0.500,2.291 2.291,0.500 4.500,0.500 Z"/>
<path fill-rule="evenodd"  fill="rgb(205, 211, 229)"
 d="M4.966,13.977 L6.646,13.977 C6.905,13.977 7.115,14.181 7.115,14.431 L7.115,20.041 C7.115,20.291 6.905,20.495 6.646,20.495 L4.966,20.495 C4.707,20.495 4.496,20.291 4.496,20.041 L4.496,14.431 C4.496,14.178 4.707,13.977 4.966,13.977 ZM9.455,11.553 L11.135,11.553 C11.394,11.553 11.604,11.757 11.604,12.007 L11.604,20.041 C11.604,20.291 11.394,20.495 11.135,20.495 L9.455,20.495 C9.196,20.495 8.985,20.291 8.985,20.041 L8.985,12.007 C8.985,11.757 9.196,11.553 9.455,11.553 ZM14.176,12.940 L15.855,12.940 C16.114,12.940 16.325,13.144 16.325,13.394 L16.325,20.043 C16.325,20.293 16.114,20.497 15.855,20.497 L14.176,20.497 C13.917,20.497 13.706,20.293 13.706,20.043 L13.706,13.394 C13.704,13.144 13.914,12.940 14.176,12.940 ZM18.351,9.557 L20.031,9.557 C20.289,9.557 20.500,9.761 20.500,10.011 L20.500,20.043 C20.500,20.293 20.289,20.497 20.031,20.497 L18.351,20.497 C18.092,20.497 17.881,20.293 17.881,20.043 L17.881,10.011 C17.881,9.761 18.090,9.557 18.351,9.557 ZM19.192,4.501 C18.543,4.501 18.016,5.008 18.016,5.638 C18.016,5.700 18.044,5.753 18.053,5.813 L15.709,8.008 C15.525,7.895 15.321,7.813 15.090,7.813 C14.639,7.813 14.258,8.068 14.061,8.429 L11.403,7.924 C11.256,7.457 10.825,7.111 10.296,7.111 C9.723,7.111 9.269,7.514 9.164,8.039 L6.503,9.579 C6.306,9.435 6.073,9.333 5.807,9.333 C5.140,9.333 4.601,9.872 4.634,10.525 C4.663,11.123 5.179,11.600 5.798,11.604 C6.375,11.608 6.833,11.203 6.939,10.676 L9.599,9.134 C9.796,9.278 10.030,9.380 10.296,9.380 C10.612,9.380 10.894,9.256 11.105,9.061 L14.173,9.645 C14.389,9.887 14.696,10.047 15.051,10.047 C15.633,10.047 16.096,9.628 16.188,9.089 L18.841,6.701 C18.953,6.737 19.066,6.770 19.189,6.770 C19.838,6.770 20.365,6.262 20.365,5.633 C20.365,5.011 19.840,4.501 19.192,4.501 Z"/>
</svg>