<svg 
 xmlns="http://www.w3.org/2000/svg"
 xmlns:xlink="http://www.w3.org/1999/xlink"
 width="25.5px" height="25.5px">
<path fill-rule="evenodd"  stroke="rgb(205, 211, 229)" stroke-width="1px" stroke-linecap="butt" stroke-linejoin="miter" fill="rgb(255, 255, 255)"
 d="M4.500,0.500 L20.500,0.500 C22.709,0.500 24.500,2.291 24.500,4.500 L24.500,20.500 C24.500,22.709 22.709,24.500 20.500,24.500 L4.500,24.500 C2.291,24.500 0.500,22.709 0.500,20.500 L0.500,4.500 C0.500,2.291 2.291,0.500 4.500,0.500 Z"/>
<path fill-rule="evenodd"  fill="rgb(54, 120, 216)"
 d="M18.500,8.500 L11.750,8.500 C11.198,8.500 10.750,8.052 10.750,7.500 C10.750,6.948 11.198,6.500 11.750,6.500 L18.500,6.500 C19.052,6.500 19.500,6.948 19.500,7.500 C19.500,8.052 19.052,8.500 18.500,8.500 ZM8.000,18.500 L6.500,18.500 C5.948,18.500 5.500,18.052 5.500,17.500 C5.500,16.948 5.948,16.500 6.500,16.500 L8.000,16.500 C8.552,16.500 9.000,16.948 9.000,17.500 C9.000,18.052 8.552,18.500 8.000,18.500 ZM8.000,13.500 L6.500,13.500 C5.948,13.500 5.500,13.052 5.500,12.500 C5.500,11.948 5.948,11.500 6.500,11.500 L8.000,11.500 C8.552,11.500 9.000,11.948 9.000,12.500 C9.000,13.052 8.552,13.500 8.000,13.500 ZM8.000,8.500 L6.500,8.500 C5.948,8.500 5.500,8.052 5.500,7.500 C5.500,6.948 5.948,6.500 6.500,6.500 L8.000,6.500 C8.552,6.500 9.000,6.948 9.000,7.500 C9.000,8.052 8.552,8.500 8.000,8.500 ZM11.750,11.500 L16.750,11.500 C17.302,11.500 17.750,11.948 17.750,12.500 C17.750,13.052 17.302,13.500 16.750,13.500 L11.750,13.500 C11.198,13.500 10.750,13.052 10.750,12.500 C10.750,11.948 11.198,11.500 11.750,11.500 ZM11.750,16.500 L18.500,16.500 C19.052,16.500 19.500,16.948 19.500,17.500 C19.500,18.052 19.052,18.500 18.500,18.500 L11.750,18.500 C11.198,18.500 10.750,18.052 10.750,17.500 C10.750,16.948 11.198,16.500 11.750,16.500 Z"/>
</svg>