<svg 
 xmlns="http://www.w3.org/2000/svg"
 xmlns:xlink="http://www.w3.org/1999/xlink"
 width="40px" height="40px">
<path fill-rule="evenodd"  fill="rgb(207, 207, 207)"
 d="M20.000,-0.000 C31.046,-0.000 40.000,8.954 40.000,20.000 C40.000,31.046 31.046,40.000 20.000,40.000 C8.954,40.000 -0.000,31.046 -0.000,20.000 C-0.000,8.954 8.954,-0.000 20.000,-0.000 Z"/>
<path fill-rule="evenodd"  opacity="0.6" fill="rgb(255, 255, 255)"
 d="M19.962,8.000 L28.500,8.000 L28.500,16.437 C28.500,21.132 24.694,24.937 20.000,24.937 L19.962,24.937 C15.288,24.937 11.500,21.149 11.500,16.476 L11.500,16.461 C11.500,11.788 15.288,8.000 19.962,8.000 Z"/>
<path fill-rule="evenodd"  opacity="0.341" fill="rgb(255, 255, 255)"
 d="M20.000,27.000 C29.389,27.000 37.000,29.686 37.000,33.000 C37.000,36.314 29.389,39.000 20.000,39.000 C10.611,39.000 3.000,36.314 3.000,33.000 C3.000,29.686 10.611,27.000 20.000,27.000 Z"/>
</svg>