<svg 
 xmlns="http://www.w3.org/2000/svg"
 xmlns:xlink="http://www.w3.org/1999/xlink"
 width="65px" height="65px">
<defs>
<linearGradient id="PSgrad_0" x1="100%" x2="0%" y1="0%" y2="0%">
  <stop offset="0%" stop-color="rgb(30,55,191)" stop-opacity="1" />
  <stop offset="100%" stop-color="rgb(88,215,252)" stop-opacity="1" />
</linearGradient>

</defs>
<path fill-rule="evenodd"  opacity="0.2" fill="rgb(51, 51, 66)"
 d="M17.000,28.000 L38.000,48.000 L27.000,58.000 C27.000,58.000 16.000,62.250 10.000,55.000 C4.365,48.191 7.000,42.500 9.000,38.000 C10.079,35.572 17.000,28.000 17.000,28.000 Z"/>
<path fill="url(#PSgrad_0)"
 d="M17.000,28.000 L38.000,48.000 L27.000,58.000 C27.000,58.000 16.000,62.250 10.000,55.000 C4.365,48.191 7.000,42.500 9.000,38.000 C10.079,35.572 17.000,28.000 17.000,28.000 Z"/>
<path fill-rule="evenodd"  fill="rgb(205, 211, 229)"
 d="M37.779,34.510 L32.193,40.096 L24.852,32.755 L30.438,27.169 L28.203,24.934 L22.617,30.520 L17.510,25.413 L9.211,33.712 C3.465,39.458 3.146,48.555 8.094,54.620 L0.912,61.802 L3.146,64.037 L10.328,56.855 C13.201,59.249 16.712,60.366 20.223,60.366 C24.213,60.366 28.203,58.770 31.236,55.737 L39.535,47.438 L34.428,42.331 L40.014,36.745 L37.779,34.510 ZM36.640,47.438 L29.868,54.210 C27.474,56.604 23.027,57.881 19.676,57.881 C16.324,57.881 13.132,56.604 10.898,54.210 C8.504,51.816 7.227,48.784 7.227,45.432 C7.227,42.080 8.504,37.474 10.898,35.240 L17.670,28.468 L36.640,47.438 ZM64.911,2.271 L62.677,0.037 L55.655,7.059 C52.782,4.665 49.271,3.548 45.759,3.548 C41.769,3.548 37.779,5.144 34.747,8.176 L26.288,16.635 L48.473,38.820 L56.931,30.361 C62.677,24.615 62.996,15.518 58.049,9.453 L64.911,2.271 ZM55.244,28.674 L48.473,35.446 L29.502,16.475 L36.274,9.704 C38.668,7.309 43.115,6.033 46.467,6.033 C49.818,6.033 53.010,7.309 55.244,9.704 C57.638,12.098 58.915,15.130 58.915,18.482 C58.915,21.833 57.638,26.439 55.244,28.674 Z"/>
</svg>