<svg 
 xmlns="http://www.w3.org/2000/svg"
 xmlns:xlink="http://www.w3.org/1999/xlink"
 width="16px" height="16px">
<path fill-rule="evenodd"  fill="rgb(241, 243, 248)"
 d="M8.000,-0.000 C12.418,-0.000 16.000,3.582 16.000,8.000 C16.000,12.418 12.418,16.000 8.000,16.000 C3.582,16.000 -0.000,12.418 -0.000,8.000 C-0.000,3.582 3.582,-0.000 8.000,-0.000 Z"/>
<path fill-rule="evenodd"  fill="rgb(205, 211, 229)"
 d="M7.994,7.236 L5.217,4.458 C5.008,4.249 4.669,4.249 4.460,4.458 C4.250,4.668 4.250,5.007 4.460,5.216 L7.236,7.994 L4.458,10.770 C4.249,10.980 4.249,11.319 4.458,11.528 C4.668,11.737 5.007,11.737 5.216,11.528 L7.994,8.752 L10.771,11.529 C10.980,11.739 11.319,11.739 11.528,11.529 C11.737,11.320 11.737,10.981 11.528,10.772 L8.752,7.994 L11.529,5.217 C11.739,5.008 11.739,4.668 11.529,4.459 C11.320,4.250 10.981,4.250 10.772,4.459 L7.994,7.235 L7.994,7.236 Z"/>
</svg>