<svg 
 xmlns="http://www.w3.org/2000/svg"
 xmlns:xlink="http://www.w3.org/1999/xlink"
 width="15px" height="14px">
<path fill-rule="evenodd"  fill="rgb(54, 120, 216)"
 d="M0.271,5.552 L14.388,0.031 C14.611,-0.057 14.869,0.043 14.962,0.253 C14.998,0.335 15.005,0.425 14.983,0.511 L11.466,13.712 C11.407,13.933 11.169,14.067 10.934,14.011 C10.870,13.996 10.810,13.968 10.759,13.928 L7.706,11.541 C7.532,11.405 7.275,11.416 7.115,11.567 L5.548,13.035 C5.377,13.196 5.098,13.195 4.928,13.034 C4.846,12.957 4.800,12.853 4.800,12.745 L4.800,9.641 C4.800,9.531 4.846,9.426 4.928,9.349 L11.297,3.372 L3.778,8.665 C3.615,8.780 3.390,8.774 3.234,8.652 L0.159,6.248 C-0.027,6.102 -0.052,5.842 0.103,5.668 C0.148,5.617 0.206,5.577 0.271,5.552 L0.271,5.552 Z"/>
</svg>