<svg 
 xmlns="http://www.w3.org/2000/svg"
 xmlns:xlink="http://www.w3.org/1999/xlink"
 width="16px" height="16px">
<path fill-rule="evenodd"  fill="rgb(205, 211, 229)"
 d="M13.998,15.997 L4.666,15.997 C3.566,15.997 2.666,15.098 2.666,13.998 L2.666,13.331 L1.999,13.331 C0.900,13.331 -0.000,12.431 -0.000,11.331 L-0.000,1.999 C-0.000,0.900 0.899,-0.000 1.999,-0.000 L11.331,-0.000 C12.431,-0.000 13.331,0.900 13.331,1.999 L13.331,2.663 L11.998,2.663 L11.998,1.999 C11.998,1.638 11.693,1.333 11.331,1.333 L1.999,1.333 C1.638,1.333 1.333,1.638 1.333,1.999 L1.333,11.331 C1.333,11.693 1.638,11.998 1.999,11.998 L2.666,11.998 L2.666,11.998 L2.666,4.666 C2.666,3.566 3.566,2.666 4.666,2.666 L13.998,2.666 C15.098,2.666 15.998,3.566 15.998,4.666 L15.998,13.998 C15.998,15.098 15.098,15.997 13.998,15.997 ZM14.664,4.666 C14.664,4.304 14.359,3.999 13.998,3.999 L13.998,3.999 L4.666,3.999 C4.304,3.999 3.999,4.304 3.999,4.666 L3.999,13.998 C3.999,14.359 4.304,14.664 4.666,14.664 L13.998,14.664 C14.359,14.664 14.664,14.359 14.664,13.998 L14.664,4.666 ZM11.998,9.998 L9.998,9.998 L9.998,11.998 C9.998,12.365 9.698,12.665 9.332,12.665 C8.965,12.665 8.665,12.365 8.665,11.998 L8.665,9.998 L6.665,9.998 C6.299,9.998 5.999,9.698 5.999,9.332 C5.999,8.965 6.299,8.665 6.665,8.665 L8.665,8.665 L8.665,6.665 C8.665,6.299 8.965,5.999 9.332,5.999 C9.698,5.999 9.998,6.299 9.998,6.665 L9.998,8.665 L11.998,8.665 C12.365,8.665 12.665,8.965 12.665,9.332 C12.665,9.698 12.365,9.998 11.998,9.998 Z"/>
</svg>