<svg 
 xmlns="http://www.w3.org/2000/svg"
 xmlns:xlink="http://www.w3.org/1999/xlink"
 width="203px" height="39px">
<path fill-rule="evenodd"  fill="rgb(255, 255, 255)"
 d="M65.212,25.594 L60.635,16.439 L52.180,33.349 L46.865,33.349 L60.393,6.292 L60.635,6.695 L60.876,6.292 L70.527,25.594 L65.212,25.594 ZM72.480,29.500 L74.404,33.349 L69.090,33.349 L67.165,29.500 L72.480,29.500 Z"/>
<path fill-rule="evenodd"  fill="rgb(255, 255, 255)"
 d="M96.146,21.753 L88.415,21.753 L88.415,17.888 L94.213,17.888 C95.280,17.888 96.146,17.023 96.146,15.955 L96.146,12.091 C96.146,11.023 95.280,10.157 94.213,10.157 L86.483,10.157 C85.415,10.157 84.550,11.023 84.550,12.091 L84.550,14.023 L84.550,15.955 L84.550,21.753 L84.550,25.135 L84.550,31.899 L79.719,33.349 L79.719,16.922 L79.719,11.124 C79.719,8.455 81.882,6.292 84.550,6.292 L96.146,6.292 C98.814,6.292 100.977,8.455 100.977,11.124 L100.977,16.922 C100.977,19.590 98.814,21.753 96.146,21.753 Z"/>
<path fill-rule="evenodd"  fill="rgb(255, 255, 255)"
 d="M121.752,22.236 L121.752,13.056 C121.752,11.989 120.887,11.124 119.820,11.124 L113.056,11.124 C111.988,11.124 111.123,11.989 111.123,13.056 L111.123,26.585 C111.123,27.652 111.988,28.517 113.056,28.517 L119.820,28.517 C120.887,28.517 121.752,27.652 121.752,26.585 L121.752,26.102 L126.584,26.102 L126.584,28.517 C126.584,31.185 124.421,33.349 121.752,33.349 L111.123,33.349 C108.455,33.349 106.292,31.185 106.292,28.517 L106.292,11.124 C106.292,8.455 108.455,6.292 111.123,6.292 L121.752,6.292 C124.421,6.292 126.584,8.455 126.584,11.124 L126.584,22.236 L121.752,22.236 Z"/>
<path fill-rule="evenodd"  fill="rgb(255, 255, 255)"
 d="M197.606,22.236 L197.606,13.056 C197.606,11.989 196.741,11.124 195.673,11.124 L188.909,11.124 C187.842,11.124 186.977,11.989 186.977,13.056 L186.977,26.585 C186.977,27.652 187.842,28.517 188.909,28.517 L195.673,28.517 C196.741,28.517 197.606,27.652 197.606,26.585 L197.606,26.102 L202.438,26.102 L202.438,28.517 C202.438,31.185 200.274,33.349 197.606,33.349 L186.977,33.349 C184.309,33.349 182.146,31.185 182.146,28.517 L182.146,11.124 C182.146,8.455 184.309,6.292 186.977,6.292 L197.606,6.292 C200.274,6.292 202.438,8.455 202.438,11.124 L202.438,22.236 L197.606,22.236 Z"/>
<path fill-rule="evenodd"  fill="rgb(255, 255, 255)"
 d="M133.348,33.349 L138.662,28.517 L150.741,28.517 L152.190,33.349 L133.348,33.349 ZM132.382,6.292 L137.213,7.742 L137.213,24.652 L132.382,28.517 L132.382,6.292 Z"/>
<path fill-rule="evenodd"  fill="rgb(255, 255, 255)"
 d="M158.955,33.349 L164.269,28.517 L176.348,28.517 L177.797,33.349 L158.955,33.349 ZM157.988,6.292 L162.820,7.742 L162.820,24.652 L157.988,28.517 L157.988,6.292 Z"/>
<path fill-rule="evenodd"  fill="rgb(255, 255, 255)"
 d="M40.031,35.908 C35.723,41.109 23.610,38.772 12.975,30.690 C2.340,22.608 -2.789,11.840 1.519,6.640 C5.827,1.439 17.940,3.776 28.575,11.858 C39.210,19.941 44.339,30.708 40.031,35.908 ZM5.089,7.279 C-0.219,11.060 3.162,22.038 12.122,29.828 C21.082,37.617 32.228,39.269 37.535,35.487 C42.842,31.706 39.945,21.693 30.986,13.903 C22.026,6.114 10.396,3.498 5.089,7.279 Z"/>
<path fill-rule="evenodd"  fill="rgb(255, 255, 255)"
 d="M9.512,24.156 L10.800,24.156 C12.844,24.156 14.500,25.813 14.500,27.856 L14.500,29.175 C14.500,31.219 12.844,32.875 10.800,32.875 L9.512,32.875 C7.469,32.875 5.812,31.219 5.812,29.175 L5.812,27.856 C5.812,25.813 7.469,24.156 9.512,24.156 Z"/>
<path fill-rule="evenodd"  fill="rgb(255, 255, 255)"
 d="M36.422,17.906 L36.984,17.906 C37.890,17.906 38.625,18.641 38.625,19.547 L38.625,20.109 C38.625,21.015 37.890,21.750 36.984,21.750 L36.422,21.750 C35.516,21.750 34.781,21.015 34.781,20.109 L34.781,19.547 C34.781,18.641 35.516,17.906 36.422,17.906 Z"/>
<path fill-rule="evenodd"  fill="rgb(255, 255, 255)"
 d="M32.407,15.687 C36.025,7.794 31.231,1.339 30.871,0.820 C30.389,0.846 22.287,1.578 18.820,9.659 C17.138,9.996 15.092,10.891 14.130,13.590 C13.169,16.289 14.926,19.232 15.955,19.568 C16.984,19.906 17.000,19.071 17.000,19.071 L17.920,17.795 C17.920,17.795 18.417,20.660 18.810,20.835 L24.128,23.194 C24.620,23.412 26.979,21.813 26.979,21.813 L26.650,23.352 C26.650,23.352 26.043,23.923 26.983,24.461 C27.923,24.997 31.284,24.325 32.640,21.801 C33.995,19.277 33.285,17.158 32.407,15.687 ZM25.658,12.572 C25.460,12.485 23.143,11.336 24.095,8.393 C25.397,5.723 28.043,6.659 28.287,6.645 C28.485,6.733 30.909,8.170 29.805,10.926 C28.262,13.607 25.857,12.661 25.658,12.572 ZM17.911,26.462 C17.773,26.773 17.304,26.937 16.972,26.790 C16.641,26.643 16.448,26.185 16.586,25.874 L17.915,22.878 C18.053,22.567 18.522,22.403 18.853,22.550 C19.184,22.697 19.378,23.155 19.240,23.466 L17.911,26.462 ZM19.931,29.056 C19.794,29.365 19.326,29.526 18.995,29.379 C18.664,29.231 18.469,28.777 18.606,28.469 L20.567,24.048 C20.704,23.740 21.172,23.579 21.503,23.726 C21.834,23.873 22.029,24.328 21.892,24.636 L19.931,29.056 ZM23.789,27.507 C23.675,27.764 23.230,27.875 22.899,27.727 C22.567,27.581 22.350,27.176 22.464,26.919 L23.262,25.122 C23.376,24.865 23.821,24.754 24.152,24.901 C24.484,25.048 24.701,25.452 24.587,25.709 L23.789,27.507 Z"/>
</svg>