<svg 
 xmlns="http://www.w3.org/2000/svg"
 xmlns:xlink="http://www.w3.org/1999/xlink"
 width="59px" height="64px">
<defs>
<linearGradient id="PSgrad_0" x1="100%" x2="0%" y1="0%" y2="0%">
  <stop offset="0%" stop-color="rgb(30,55,191)" stop-opacity="1" />
  <stop offset="100%" stop-color="rgb(88,215,252)" stop-opacity="1" />
</linearGradient>

</defs>
<path fill-rule="evenodd"  opacity="0.8" fill="rgb(54, 120, 216)"
 d="M59.001,46.769 L59.001,61.538 C59.001,62.898 57.900,64.000 56.542,64.000 L2.457,64.000 C1.099,64.000 -0.002,62.898 -0.002,61.538 L-0.002,46.769 C-0.002,45.410 1.099,44.308 2.457,44.308 L2.457,41.846 C1.099,41.846 -0.002,40.744 -0.002,39.385 L-0.002,24.615 C-0.002,23.256 1.099,22.154 2.457,22.154 L2.457,19.692 C1.099,19.692 -0.002,18.590 -0.002,17.231 L-0.002,2.461 C-0.002,1.102 1.099,-0.000 2.457,-0.000 L56.542,-0.000 C57.900,-0.000 59.001,1.102 59.001,2.461 L59.001,17.231 C59.001,18.590 57.900,19.692 56.542,19.692 L56.542,22.154 C57.900,22.154 59.001,23.256 59.001,24.615 L59.001,39.385 C59.001,40.744 57.900,41.846 56.542,41.846 L56.542,44.308 C57.900,44.308 59.001,45.410 59.001,46.769 ZM56.542,2.461 L2.457,2.461 L2.457,17.231 L56.542,17.231 L56.542,2.461 ZM54.084,39.385 L54.084,24.615 L4.915,24.615 L4.915,39.385 L54.084,39.385 ZM4.915,41.846 L4.915,44.308 L54.084,44.308 L54.084,41.846 L4.915,41.846 ZM54.084,22.154 L54.084,19.692 L4.915,19.692 L4.915,22.154 L54.084,22.154 ZM2.457,46.769 L2.457,61.538 L56.542,61.538 L56.542,46.769 L2.457,46.769 ZM49.167,52.923 L51.625,52.923 L51.625,55.385 L49.167,55.385 L49.167,52.923 ZM44.250,52.923 L46.709,52.923 L46.709,55.385 L44.250,55.385 L44.250,52.923 ZM39.333,52.923 L41.792,52.923 L41.792,55.385 L39.333,55.385 L39.333,52.923 ZM8.603,52.923 L18.437,52.923 L18.437,55.385 L8.603,55.385 L8.603,52.923 ZM18.437,33.231 L8.603,33.231 L8.603,30.769 L18.437,30.769 L18.437,33.231 ZM41.792,33.231 L39.333,33.231 L39.333,30.769 L41.792,30.769 L41.792,33.231 ZM46.709,33.231 L44.250,33.231 L44.250,30.769 L46.709,30.769 L46.709,33.231 ZM51.625,33.231 L49.167,33.231 L49.167,30.769 L51.625,30.769 L51.625,33.231 ZM18.437,11.077 L8.603,11.077 L8.603,8.615 L18.437,8.615 L18.437,11.077 ZM41.792,11.077 L39.333,11.077 L39.333,8.615 L41.792,8.615 L41.792,11.077 ZM46.709,11.077 L44.250,11.077 L44.250,8.615 L46.709,8.615 L46.709,11.077 ZM51.625,11.077 L49.167,11.077 L49.167,8.615 L51.625,8.615 L51.625,11.077 Z"/>
<path fill-rule="evenodd"  opacity="0.2" fill="rgb(51, 51, 66)"
 d="M3.000,47.000 L56.000,47.000 L56.000,61.000 L3.000,61.000 L3.000,47.000 Z"/>
<path fill="url(#PSgrad_0)"
 d="M3.000,47.000 L56.000,47.000 L56.000,61.000 L3.000,61.000 L3.000,47.000 Z"/>
</svg>