<svg 
 xmlns="http://www.w3.org/2000/svg"
 xmlns:xlink="http://www.w3.org/1999/xlink"
 width="16px" height="16px">
<path fill-rule="evenodd"  fill="rgb(255, 174, 58)"
 d="M8.000,16.000 C3.589,16.000 -0.000,12.412 -0.000,8.000 C-0.000,3.588 3.590,-0.000 8.000,-0.000 C12.412,-0.000 16.000,3.588 16.000,8.000 C16.000,12.412 12.411,16.000 8.000,16.000 ZM7.995,0.998 C4.138,0.998 1.001,4.134 1.001,7.991 C1.001,11.846 4.138,14.983 7.995,14.983 C11.852,14.983 14.990,11.846 14.989,7.991 C14.989,4.134 11.851,0.998 7.995,0.998 ZM9.266,8.030 C8.966,8.311 8.780,8.537 8.707,8.709 C8.635,8.880 8.601,9.186 8.608,9.627 L7.315,9.627 C7.311,9.418 7.310,9.290 7.310,9.245 C7.310,8.773 7.380,8.385 7.518,8.081 C7.656,7.777 7.934,7.435 8.349,7.054 C8.764,6.674 9.013,6.425 9.094,6.307 C9.218,6.120 9.281,5.915 9.281,5.690 C9.281,5.379 9.170,5.112 8.948,4.890 C8.727,4.668 8.428,4.557 8.052,4.557 C7.690,4.557 7.386,4.673 7.143,4.904 C6.899,5.135 6.690,5.646 6.640,5.962 C6.593,6.260 5.318,6.385 5.333,5.781 C5.349,5.177 5.628,4.522 6.106,4.046 C6.585,3.571 7.213,3.333 7.990,3.333 L7.991,3.333 C8.809,3.333 9.459,3.574 9.943,4.055 C10.427,4.537 10.668,5.097 10.668,5.736 C10.668,6.090 10.580,6.425 10.403,6.741 C10.225,7.056 9.846,7.486 9.266,8.030 ZM8.002,10.584 C8.304,10.584 8.604,10.708 8.817,10.921 C9.030,11.133 9.154,11.433 9.154,11.734 C9.154,12.035 9.030,12.335 8.817,12.548 C8.603,12.761 8.304,12.885 8.002,12.885 C7.700,12.885 7.400,12.761 7.187,12.548 C6.973,12.335 6.849,12.035 6.849,11.734 C6.849,11.433 6.973,11.134 7.187,10.921 C7.400,10.708 7.700,10.584 8.002,10.584 Z"/>
</svg>