<svg 
 xmlns="http://www.w3.org/2000/svg"
 xmlns:xlink="http://www.w3.org/1999/xlink"
 width="14px" height="13px">
<path fill-rule="evenodd"  fill="rgb(255, 255, 255)"
 d="M8.408,-0.003 L5.487,-0.003 C2.482,0.061 0.061,2.488 -0.003,5.500 C-0.069,8.606 2.389,11.177 5.487,11.242 L8.051,11.242 L11.007,13.006 L11.808,10.081 C13.186,9.020 13.995,7.379 14.001,5.638 C14.010,2.532 11.506,0.006 8.408,-0.003 ZM4.120,6.601 C3.599,6.601 3.177,6.178 3.177,5.656 C3.177,5.134 3.599,4.711 4.120,4.711 C4.640,4.711 5.062,5.134 5.062,5.656 C5.062,6.178 4.640,6.601 4.120,6.601 ZM7.890,5.658 C7.889,6.179 7.467,6.602 6.947,6.602 C6.426,6.601 6.004,6.178 6.005,5.656 C6.005,5.134 6.427,4.711 6.947,4.711 C7.468,4.711 7.890,5.134 7.890,5.656 C7.890,5.657 7.890,5.657 7.890,5.658 ZM9.775,6.601 C9.254,6.601 8.832,6.178 8.832,5.656 C8.832,5.134 9.254,4.711 9.775,4.711 C10.295,4.711 10.717,5.134 10.717,5.656 C10.717,6.178 10.295,6.601 9.775,6.601 Z"/>
</svg>