<svg 
 xmlns="http://www.w3.org/2000/svg"
 xmlns:xlink="http://www.w3.org/1999/xlink"
 width="149px" height="29px">
<defs>
<filter id="Filter_0">
    <feFlood flood-color="rgb(43, 43, 56)" flood-opacity="1" result="floodOut" />
    <feComposite operator="atop" in="floodOut" in2="SourceGraphic" result="compOut" />
    <feBlend mode="normal" in="compOut" in2="SourceGraphic" />
</filter>

</defs>
<g filter="url(#Filter_0)">
<path fill-rule="evenodd"  fill="rgb(255, 255, 255)"
 d="M47.838,19.031 L44.480,12.316 L38.285,24.708 L34.390,24.708 L44.303,4.882 L44.480,5.177 L44.657,4.882 L51.732,19.031 L47.838,19.031 ZM53.169,21.906 L54.570,24.708 L50.676,24.708 L49.275,21.906 L53.169,21.906 Z"/>
<path fill-rule="evenodd"  fill="rgb(255, 255, 255)"
 d="M70.501,16.211 L64.837,16.211 L64.837,13.378 L69.085,13.378 C69.867,13.378 70.501,12.744 70.501,11.962 L70.501,9.130 C70.501,8.348 69.867,7.714 69.085,7.714 L63.421,7.714 C62.639,7.714 62.005,8.348 62.005,9.130 L62.005,10.546 L62.005,11.962 L62.005,16.211 L62.005,18.689 L62.005,23.645 L58.464,24.708 L58.464,12.671 L58.464,8.422 C58.464,6.467 60.049,4.882 62.005,4.882 L70.501,4.882 C72.456,4.882 74.042,6.467 74.042,8.422 L74.042,12.671 C74.042,14.626 72.456,16.211 70.501,16.211 Z"/>
<path fill-rule="evenodd"  fill="rgb(255, 255, 255)"
 d="M89.265,16.565 L89.265,9.838 C89.265,9.056 88.631,8.422 87.849,8.422 L82.892,8.422 C82.110,8.422 81.476,9.056 81.476,9.838 L81.476,19.751 C81.476,20.533 82.110,21.167 82.892,21.167 L87.849,21.167 C88.631,21.167 89.265,20.533 89.265,19.751 L89.265,19.397 L92.805,19.397 L92.805,21.167 C92.805,23.122 91.220,24.708 89.265,24.708 L81.476,24.708 C79.521,24.708 77.936,23.122 77.936,21.167 L77.936,8.422 C77.936,6.467 79.521,4.882 81.476,4.882 L89.265,4.882 C91.220,4.882 92.805,6.467 92.805,8.422 L92.805,16.565 L89.265,16.565 Z"/>
<path fill-rule="evenodd"  fill="rgb(255, 255, 255)"
 d="M144.847,16.565 L144.847,9.838 C144.847,9.056 144.213,8.422 143.431,8.422 L138.475,8.422 C137.693,8.422 137.059,9.056 137.059,9.838 L137.059,19.751 C137.059,20.533 137.693,21.167 138.475,21.167 L143.431,21.167 C144.213,21.167 144.847,20.533 144.847,19.751 L144.847,19.397 L148.388,19.397 L148.388,21.167 C148.388,23.122 146.803,24.708 144.847,24.708 L137.059,24.708 C135.103,24.708 133.518,23.122 133.518,21.167 L133.518,8.422 C133.518,6.467 135.103,4.882 137.059,4.882 L144.847,4.882 C146.803,4.882 148.388,6.467 148.388,8.422 L148.388,16.565 L144.847,16.565 Z"/>
<path fill-rule="evenodd"  fill="rgb(255, 255, 255)"
 d="M97.761,24.708 L101.656,21.167 L110.507,21.167 L111.569,24.708 L97.761,24.708 ZM97.053,4.882 L100.594,5.944 L100.594,18.335 L97.053,21.167 L97.053,4.882 Z"/>
<path fill-rule="evenodd"  fill="rgb(255, 255, 255)"
 d="M116.525,24.708 L120.419,21.167 L129.270,21.167 L130.332,24.708 L116.525,24.708 ZM115.817,4.882 L119.357,5.944 L119.357,18.335 L115.817,21.167 L115.817,4.882 Z"/>
<path fill-rule="evenodd"  fill="rgb(255, 255, 255)"
 d="M29.383,26.583 C26.226,30.394 17.350,28.682 9.557,22.759 C1.764,16.837 -1.994,8.947 1.163,5.136 C4.319,1.326 13.196,3.038 20.988,8.960 C28.781,14.883 32.539,22.773 29.383,26.583 ZM3.778,5.605 C-0.111,8.376 2.367,16.420 8.932,22.127 C15.497,27.835 23.665,29.045 27.554,26.275 C31.443,23.504 29.320,16.167 22.755,10.459 C16.189,4.751 7.667,2.834 3.778,5.605 Z"/>
<path fill-rule="evenodd"  fill="rgb(255, 255, 255)"
 d="M7.011,17.969 L7.958,17.969 C9.448,17.969 10.656,19.177 10.656,20.667 L10.656,21.677 C10.656,23.167 9.448,24.375 7.958,24.375 L7.011,24.375 C5.521,24.375 4.312,23.167 4.312,21.677 L4.312,20.667 C4.312,19.177 5.521,17.969 7.011,17.969 Z"/>
<path fill-rule="evenodd"  fill="rgb(255, 255, 255)"
 d="M26.725,13.375 L27.181,13.375 C27.840,13.375 28.375,13.909 28.375,14.569 L28.375,15.025 C28.375,15.684 27.840,16.219 27.181,16.219 L26.725,16.219 C26.066,16.219 25.531,15.684 25.531,15.025 L25.531,14.569 C25.531,13.909 26.066,13.375 26.725,13.375 Z"/>
<path fill-rule="evenodd"  fill="rgb(255, 255, 255)"
 d="M23.796,11.765 C26.448,5.982 22.934,1.252 22.671,0.872 C22.317,0.891 16.380,1.428 13.840,7.349 C12.608,7.595 11.109,8.251 10.403,10.229 C9.699,12.207 10.987,14.364 11.741,14.610 C12.495,14.857 12.507,14.245 12.507,14.245 L13.181,13.310 C13.181,13.310 13.545,15.410 13.833,15.538 L17.730,17.267 C18.090,17.426 19.819,16.255 19.819,16.255 L19.578,17.382 C19.578,17.382 19.133,17.801 19.822,18.195 C20.510,18.588 22.974,18.096 23.967,16.246 C24.960,14.396 24.440,12.844 23.796,11.765 ZM18.851,9.484 C18.706,9.419 17.008,8.578 17.705,6.421 C18.659,4.465 20.599,5.150 20.777,5.140 C20.922,5.204 22.698,6.258 21.889,8.277 C20.759,10.242 18.996,9.548 18.851,9.484 ZM13.174,19.661 C13.073,19.889 12.729,20.009 12.486,19.902 C12.244,19.794 12.102,19.458 12.203,19.231 L13.177,17.035 C13.278,16.807 13.622,16.687 13.865,16.795 C14.107,16.903 14.249,17.238 14.148,17.466 L13.174,19.661 ZM14.654,21.562 C14.554,21.788 14.211,21.906 13.968,21.799 C13.726,21.691 13.583,21.357 13.683,21.132 L15.120,17.893 C15.220,17.666 15.563,17.548 15.806,17.656 C16.049,17.764 16.191,18.097 16.091,18.323 L14.654,21.562 ZM17.482,20.427 C17.398,20.615 17.071,20.696 16.829,20.589 C16.586,20.481 16.427,20.185 16.511,19.996 L17.095,18.679 C17.179,18.491 17.505,18.409 17.748,18.517 C17.990,18.625 18.149,18.921 18.066,19.110 L17.482,20.427 Z"/>
</g>
</svg>