<svg 
 xmlns="http://www.w3.org/2000/svg"
 xmlns:xlink="http://www.w3.org/1999/xlink"
 width="20px" height="21px">
<path fill-rule="evenodd"  fill="rgb(205, 211, 229)"
 d="M19.214,14.846 C17.360,19.261 12.678,21.749 8.016,20.798 C3.355,19.846 0.003,15.717 -0.000,10.924 C-0.000,10.386 0.042,9.848 0.126,9.317 L0.238,8.616 L16.792,8.616 C16.802,4.784 13.712,1.665 9.913,1.665 C6.697,1.665 3.869,3.959 3.189,7.120 C3.092,7.570 2.652,7.855 2.206,7.758 C1.759,7.660 1.476,7.217 1.573,6.767 C2.502,2.476 6.490,-0.421 10.824,0.049 C15.158,0.519 18.444,4.204 18.445,8.596 L18.445,8.615 L19.762,8.615 L19.873,9.316 C19.958,9.848 20.000,10.385 19.999,10.924 C20.002,12.271 19.735,13.605 19.214,14.846 ZM18.332,10.281 L1.688,10.281 C1.672,10.495 1.664,10.709 1.664,10.924 C1.664,15.561 5.408,19.335 10.010,19.335 C14.612,19.335 18.357,15.561 18.357,10.924 C18.357,10.709 18.348,10.495 18.332,10.281 ZM10.840,16.058 L10.840,17.582 C10.840,17.812 10.746,18.031 10.580,18.189 C10.413,18.346 10.190,18.428 9.962,18.413 C9.535,18.388 9.187,17.998 9.187,17.567 L9.187,16.058 C8.142,15.692 7.455,14.685 7.488,13.572 C7.529,12.219 8.628,11.128 9.971,11.105 C11.212,11.083 12.286,11.975 12.502,13.207 C12.718,14.440 12.014,15.648 10.840,16.058 ZM10.344,12.838 C10.018,12.702 9.642,12.777 9.393,13.029 C9.143,13.281 9.068,13.659 9.203,13.988 C9.338,14.317 9.657,14.532 10.010,14.532 C10.492,14.531 10.883,14.137 10.884,13.651 C10.884,13.295 10.671,12.974 10.344,12.838 Z"/>
</svg>