<svg 
 xmlns="http://www.w3.org/2000/svg"
 xmlns:xlink="http://www.w3.org/1999/xlink"
 width="20px" height="20px">
<path fill-rule="evenodd"  fill="rgb(205, 211, 229)"
 d="M19.263,10.475 C18.883,10.475 18.565,10.169 18.535,9.774 C18.191,5.170 14.496,1.533 10.000,1.533 C5.504,1.533 1.808,5.170 1.464,9.774 C1.435,10.171 1.116,10.475 0.736,10.475 C0.305,10.475 -0.032,10.089 0.002,9.641 C0.410,4.254 4.737,-0.001 10.000,-0.001 C15.262,-0.001 19.589,4.254 19.997,9.641 C20.031,10.089 19.694,10.475 19.263,10.475 ZM7.959,12.176 C6.900,11.469 6.193,10.234 6.193,8.827 C6.193,6.635 7.899,4.853 9.997,4.853 C12.096,4.853 13.802,6.637 13.802,8.827 C13.802,10.234 13.095,11.469 12.036,12.176 C14.064,12.597 15.917,13.650 17.390,15.239 C17.770,15.650 17.770,16.316 17.390,16.727 C15.435,18.838 12.811,20.000 10.000,20.000 C7.188,20.000 4.564,18.838 2.606,16.727 C2.227,16.316 2.227,15.650 2.606,15.239 C4.080,13.650 5.933,12.597 7.959,12.176 ZM12.335,8.827 C12.335,7.482 11.287,6.387 10.000,6.387 C8.712,6.387 7.664,7.482 7.664,8.827 C7.664,10.173 8.712,11.266 10.000,11.266 C11.287,11.266 12.335,10.171 12.335,8.827 ZM10.000,18.466 C12.263,18.466 14.385,17.587 16.022,15.982 C14.382,14.377 12.263,13.498 10.000,13.498 C7.737,13.498 5.615,14.377 3.977,15.982 C5.615,17.587 7.737,18.466 10.000,18.466 Z"/>
</svg>